<mxfile host="app.diagrams.net" modified="2024-05-29T08:29:31.974Z" agent="Mozilla/5.0 (Windows NT 10.0; Win64; x64) AppleWebKit/537.36 (KHTML, like Gecko) Chrome/125.0.0.0 Safari/537.36" etag="RYxHacPMG9xq1bLgu8Hn" version="24.4.9" type="github">
  <diagram name="第 1 页" id="QIkSNU2lJWrrcMK7OgB3">
    <mxGraphModel dx="1195" dy="615" grid="1" gridSize="10" guides="1" tooltips="1" connect="1" arrows="1" fold="1" page="1" pageScale="1" pageWidth="827" pageHeight="1169" math="0" shadow="0">
      <root>
        <mxCell id="0" />
        <mxCell id="1" parent="0" />
        <mxCell id="RuP5DusUmNIFuySBbjsR-11" style="edgeStyle=none;rounded=0;orthogonalLoop=1;jettySize=auto;html=1;exitX=1;exitY=0.3333333333333333;exitDx=0;exitDy=0;exitPerimeter=0;entryX=0;entryY=0.5;entryDx=0;entryDy=0;endArrow=none;endFill=0;fontSize=13;" edge="1" parent="1" source="RuP5DusUmNIFuySBbjsR-1" target="RuP5DusUmNIFuySBbjsR-6">
          <mxGeometry relative="1" as="geometry" />
        </mxCell>
        <mxCell id="RuP5DusUmNIFuySBbjsR-12" style="edgeStyle=none;rounded=0;orthogonalLoop=1;jettySize=auto;html=1;exitX=1;exitY=0.3333333333333333;exitDx=0;exitDy=0;exitPerimeter=0;entryX=0;entryY=0.5;entryDx=0;entryDy=0;endArrow=none;endFill=0;fontSize=13;" edge="1" parent="1" source="RuP5DusUmNIFuySBbjsR-1" target="RuP5DusUmNIFuySBbjsR-7">
          <mxGeometry relative="1" as="geometry" />
        </mxCell>
        <mxCell id="RuP5DusUmNIFuySBbjsR-14" style="edgeStyle=none;rounded=0;orthogonalLoop=1;jettySize=auto;html=1;exitX=1;exitY=0.3333333333333333;exitDx=0;exitDy=0;exitPerimeter=0;entryX=0;entryY=0.5;entryDx=0;entryDy=0;endArrow=none;endFill=0;fontSize=13;" edge="1" parent="1" source="RuP5DusUmNIFuySBbjsR-1" target="RuP5DusUmNIFuySBbjsR-9">
          <mxGeometry relative="1" as="geometry" />
        </mxCell>
        <mxCell id="RuP5DusUmNIFuySBbjsR-1" value="普通用户" style="shape=umlActor;verticalLabelPosition=bottom;verticalAlign=top;html=1;outlineConnect=0;fontSize=13;" vertex="1" parent="1">
          <mxGeometry x="170" y="230" width="30" height="60" as="geometry" />
        </mxCell>
        <mxCell id="RuP5DusUmNIFuySBbjsR-4" value="" style="rounded=0;whiteSpace=wrap;html=1;gradientColor=none;fillColor=none;fontSize=13;" vertex="1" parent="1">
          <mxGeometry x="250" width="450" height="530" as="geometry" />
        </mxCell>
        <mxCell id="RuP5DusUmNIFuySBbjsR-6" value="注册登录" style="ellipse;whiteSpace=wrap;html=1;fontSize=13;" vertex="1" parent="1">
          <mxGeometry x="308" y="110" width="106" height="40" as="geometry" />
        </mxCell>
        <mxCell id="RuP5DusUmNIFuySBbjsR-27" style="edgeStyle=none;rounded=0;orthogonalLoop=1;jettySize=auto;html=1;exitX=1;exitY=0.5;exitDx=0;exitDy=0;entryX=0;entryY=0.5;entryDx=0;entryDy=0;endArrow=open;endFill=0;dashed=1;fontSize=13;" edge="1" parent="1" source="RuP5DusUmNIFuySBbjsR-7" target="RuP5DusUmNIFuySBbjsR-24">
          <mxGeometry relative="1" as="geometry" />
        </mxCell>
        <mxCell id="RuP5DusUmNIFuySBbjsR-40" value="&amp;lt;&amp;lt;include&amp;gt;&amp;gt;" style="edgeLabel;html=1;align=center;verticalAlign=middle;resizable=0;points=[];rotation=-50;fontSize=13;" vertex="1" connectable="0" parent="RuP5DusUmNIFuySBbjsR-27">
          <mxGeometry x="0.0096" y="1" relative="1" as="geometry">
            <mxPoint as="offset" />
          </mxGeometry>
        </mxCell>
        <mxCell id="RuP5DusUmNIFuySBbjsR-28" style="edgeStyle=none;rounded=0;orthogonalLoop=1;jettySize=auto;html=1;exitX=1;exitY=0.5;exitDx=0;exitDy=0;entryX=0;entryY=0.5;entryDx=0;entryDy=0;endArrow=open;endFill=0;dashed=1;fontSize=13;" edge="1" parent="1" source="RuP5DusUmNIFuySBbjsR-7" target="RuP5DusUmNIFuySBbjsR-16">
          <mxGeometry relative="1" as="geometry" />
        </mxCell>
        <mxCell id="RuP5DusUmNIFuySBbjsR-41" value="&amp;lt;&amp;lt;include&amp;gt;&amp;gt;" style="edgeLabel;html=1;align=center;verticalAlign=middle;resizable=0;points=[];rotation=-35;fontSize=13;" vertex="1" connectable="0" parent="RuP5DusUmNIFuySBbjsR-28">
          <mxGeometry x="0.1187" y="1" relative="1" as="geometry">
            <mxPoint as="offset" />
          </mxGeometry>
        </mxCell>
        <mxCell id="RuP5DusUmNIFuySBbjsR-29" style="edgeStyle=none;rounded=0;orthogonalLoop=1;jettySize=auto;html=1;exitX=1;exitY=0.5;exitDx=0;exitDy=0;endArrow=open;endFill=0;dashed=1;fontSize=13;" edge="1" parent="1" source="RuP5DusUmNIFuySBbjsR-7" target="RuP5DusUmNIFuySBbjsR-21">
          <mxGeometry relative="1" as="geometry" />
        </mxCell>
        <mxCell id="RuP5DusUmNIFuySBbjsR-42" value="&amp;lt;&amp;lt;include&amp;gt;&amp;gt;" style="edgeLabel;html=1;align=center;verticalAlign=middle;resizable=0;points=[];rotation=-10;fontSize=13;" vertex="1" connectable="0" parent="RuP5DusUmNIFuySBbjsR-29">
          <mxGeometry x="-0.0171" relative="1" as="geometry">
            <mxPoint as="offset" />
          </mxGeometry>
        </mxCell>
        <mxCell id="RuP5DusUmNIFuySBbjsR-7" value="机构管理" style="ellipse;whiteSpace=wrap;html=1;fontSize=13;" vertex="1" parent="1">
          <mxGeometry x="308" y="170" width="106" height="40" as="geometry" />
        </mxCell>
        <mxCell id="RuP5DusUmNIFuySBbjsR-30" style="edgeStyle=none;rounded=0;orthogonalLoop=1;jettySize=auto;html=1;exitX=1;exitY=0.5;exitDx=0;exitDy=0;entryX=0;entryY=0.5;entryDx=0;entryDy=0;endArrow=open;endFill=0;dashed=1;fontSize=13;" edge="1" parent="1" source="RuP5DusUmNIFuySBbjsR-8" target="RuP5DusUmNIFuySBbjsR-26">
          <mxGeometry relative="1" as="geometry" />
        </mxCell>
        <mxCell id="RuP5DusUmNIFuySBbjsR-43" value="&amp;lt;&amp;lt;include&amp;gt;&amp;gt;" style="edgeLabel;html=1;align=center;verticalAlign=middle;resizable=0;points=[];rotation=-25;fontSize=13;" vertex="1" connectable="0" parent="RuP5DusUmNIFuySBbjsR-30">
          <mxGeometry x="-0.0183" relative="1" as="geometry">
            <mxPoint as="offset" />
          </mxGeometry>
        </mxCell>
        <mxCell id="RuP5DusUmNIFuySBbjsR-31" style="edgeStyle=none;rounded=0;orthogonalLoop=1;jettySize=auto;html=1;exitX=1;exitY=0.5;exitDx=0;exitDy=0;entryX=0;entryY=0.5;entryDx=0;entryDy=0;endArrow=open;endFill=0;dashed=1;fontSize=13;" edge="1" parent="1" source="RuP5DusUmNIFuySBbjsR-8" target="RuP5DusUmNIFuySBbjsR-22">
          <mxGeometry relative="1" as="geometry" />
        </mxCell>
        <mxCell id="RuP5DusUmNIFuySBbjsR-44" value="&amp;lt;&amp;lt;include&amp;gt;&amp;gt;" style="edgeLabel;html=1;align=center;verticalAlign=middle;resizable=0;points=[];fontSize=13;" vertex="1" connectable="0" parent="RuP5DusUmNIFuySBbjsR-31">
          <mxGeometry x="-0.034" y="1" relative="1" as="geometry">
            <mxPoint as="offset" />
          </mxGeometry>
        </mxCell>
        <mxCell id="RuP5DusUmNIFuySBbjsR-32" style="edgeStyle=none;rounded=0;orthogonalLoop=1;jettySize=auto;html=1;exitX=1;exitY=0.5;exitDx=0;exitDy=0;entryX=0;entryY=0.5;entryDx=0;entryDy=0;endArrow=open;endFill=0;dashed=1;fontSize=13;" edge="1" parent="1" source="RuP5DusUmNIFuySBbjsR-8" target="RuP5DusUmNIFuySBbjsR-23">
          <mxGeometry relative="1" as="geometry" />
        </mxCell>
        <mxCell id="RuP5DusUmNIFuySBbjsR-45" value="&amp;lt;&amp;lt;include&amp;gt;&amp;gt;" style="edgeLabel;html=1;align=center;verticalAlign=middle;resizable=0;points=[];rotation=25;fontSize=13;" vertex="1" connectable="0" parent="RuP5DusUmNIFuySBbjsR-32">
          <mxGeometry x="-0.0826" y="-1" relative="1" as="geometry">
            <mxPoint y="-4" as="offset" />
          </mxGeometry>
        </mxCell>
        <mxCell id="RuP5DusUmNIFuySBbjsR-8" value="活动管理" style="ellipse;whiteSpace=wrap;html=1;fontSize=13;" vertex="1" parent="1">
          <mxGeometry x="308" y="250" width="106" height="40" as="geometry" />
        </mxCell>
        <mxCell id="RuP5DusUmNIFuySBbjsR-37" style="edgeStyle=none;rounded=0;orthogonalLoop=1;jettySize=auto;html=1;exitX=1;exitY=0.5;exitDx=0;exitDy=0;entryX=0;entryY=0.5;entryDx=0;entryDy=0;endArrow=open;endFill=0;dashed=1;fontSize=13;" edge="1" parent="1" source="RuP5DusUmNIFuySBbjsR-9" target="RuP5DusUmNIFuySBbjsR-34">
          <mxGeometry relative="1" as="geometry" />
        </mxCell>
        <mxCell id="RuP5DusUmNIFuySBbjsR-47" value="&amp;lt;&amp;lt;include&amp;gt;&amp;gt;" style="edgeLabel;html=1;align=center;verticalAlign=middle;resizable=0;points=[];rotation=25;fontSize=13;" vertex="1" connectable="0" parent="RuP5DusUmNIFuySBbjsR-37">
          <mxGeometry x="0.0273" y="1" relative="1" as="geometry">
            <mxPoint as="offset" />
          </mxGeometry>
        </mxCell>
        <mxCell id="RuP5DusUmNIFuySBbjsR-38" style="edgeStyle=none;rounded=0;orthogonalLoop=1;jettySize=auto;html=1;exitX=1;exitY=0.5;exitDx=0;exitDy=0;entryX=0;entryY=0.5;entryDx=0;entryDy=0;endArrow=open;endFill=0;dashed=1;fontSize=13;" edge="1" parent="1" source="RuP5DusUmNIFuySBbjsR-9" target="RuP5DusUmNIFuySBbjsR-35">
          <mxGeometry relative="1" as="geometry" />
        </mxCell>
        <mxCell id="RuP5DusUmNIFuySBbjsR-48" value="&amp;lt;&amp;lt;include&amp;gt;&amp;gt;" style="edgeLabel;html=1;align=center;verticalAlign=middle;resizable=0;points=[];rotation=50;fontSize=13;" vertex="1" connectable="0" parent="RuP5DusUmNIFuySBbjsR-38">
          <mxGeometry x="0.1502" y="-1" relative="1" as="geometry">
            <mxPoint as="offset" />
          </mxGeometry>
        </mxCell>
        <mxCell id="RuP5DusUmNIFuySBbjsR-9" value="个人信息管理" style="ellipse;whiteSpace=wrap;html=1;fontSize=13;" vertex="1" parent="1">
          <mxGeometry x="308" y="360" width="106" height="40" as="geometry" />
        </mxCell>
        <mxCell id="RuP5DusUmNIFuySBbjsR-13" style="edgeStyle=none;rounded=0;orthogonalLoop=1;jettySize=auto;html=1;exitX=1;exitY=0.3333333333333333;exitDx=0;exitDy=0;exitPerimeter=0;entryX=0.02;entryY=0.614;entryDx=0;entryDy=0;entryPerimeter=0;endArrow=none;endFill=0;fontSize=13;" edge="1" parent="1" source="RuP5DusUmNIFuySBbjsR-1" target="RuP5DusUmNIFuySBbjsR-8">
          <mxGeometry relative="1" as="geometry" />
        </mxCell>
        <mxCell id="RuP5DusUmNIFuySBbjsR-16" value="申请加入机构" style="ellipse;whiteSpace=wrap;html=1;fontSize=13;" vertex="1" parent="1">
          <mxGeometry x="520" y="90" width="106" height="40" as="geometry" />
        </mxCell>
        <mxCell id="RuP5DusUmNIFuySBbjsR-21" value="退出机构" style="ellipse;whiteSpace=wrap;html=1;fontSize=13;" vertex="1" parent="1">
          <mxGeometry x="520" y="140" width="106" height="40" as="geometry" />
        </mxCell>
        <mxCell id="RuP5DusUmNIFuySBbjsR-22" value="申请参加活动" style="ellipse;whiteSpace=wrap;html=1;fontSize=13;" vertex="1" parent="1">
          <mxGeometry x="520" y="250" width="106" height="40" as="geometry" />
        </mxCell>
        <mxCell id="RuP5DusUmNIFuySBbjsR-23" value="取消参加活动" style="ellipse;whiteSpace=wrap;html=1;fontSize=13;" vertex="1" parent="1">
          <mxGeometry x="520" y="300" width="106" height="40" as="geometry" />
        </mxCell>
        <mxCell id="RuP5DusUmNIFuySBbjsR-24" value="查看已加入机构" style="ellipse;whiteSpace=wrap;html=1;fontSize=13;" vertex="1" parent="1">
          <mxGeometry x="520" y="40" width="106" height="40" as="geometry" />
        </mxCell>
        <mxCell id="RuP5DusUmNIFuySBbjsR-26" value="查看已参加活动" style="ellipse;whiteSpace=wrap;html=1;fontSize=13;" vertex="1" parent="1">
          <mxGeometry x="520" y="200" width="106" height="40" as="geometry" />
        </mxCell>
        <mxCell id="RuP5DusUmNIFuySBbjsR-33" value="上传头像" style="ellipse;whiteSpace=wrap;html=1;fontSize=13;" vertex="1" parent="1">
          <mxGeometry x="520" y="370" width="106" height="40" as="geometry" />
        </mxCell>
        <mxCell id="RuP5DusUmNIFuySBbjsR-34" value="忘记密码" style="ellipse;whiteSpace=wrap;html=1;fontSize=13;" vertex="1" parent="1">
          <mxGeometry x="520" y="420" width="106" height="40" as="geometry" />
        </mxCell>
        <mxCell id="RuP5DusUmNIFuySBbjsR-35" value="修改个人信息" style="ellipse;whiteSpace=wrap;html=1;fontSize=13;" vertex="1" parent="1">
          <mxGeometry x="520" y="470" width="106" height="40" as="geometry" />
        </mxCell>
        <mxCell id="RuP5DusUmNIFuySBbjsR-36" style="edgeStyle=none;rounded=0;orthogonalLoop=1;jettySize=auto;html=1;exitX=1;exitY=0.5;exitDx=0;exitDy=0;entryX=0.047;entryY=0.657;entryDx=0;entryDy=0;entryPerimeter=0;endArrow=open;endFill=0;dashed=1;fontSize=13;" edge="1" parent="1" source="RuP5DusUmNIFuySBbjsR-9" target="RuP5DusUmNIFuySBbjsR-33">
          <mxGeometry relative="1" as="geometry" />
        </mxCell>
        <mxCell id="RuP5DusUmNIFuySBbjsR-46" value="&amp;lt;&amp;lt;include&amp;gt;&amp;gt;" style="edgeLabel;html=1;align=center;verticalAlign=middle;resizable=0;points=[];rotation=10;fontSize=13;" vertex="1" connectable="0" parent="RuP5DusUmNIFuySBbjsR-36">
          <mxGeometry x="-0.0373" y="1" relative="1" as="geometry">
            <mxPoint as="offset" />
          </mxGeometry>
        </mxCell>
        <mxCell id="RuP5DusUmNIFuySBbjsR-39" value="公益上海App" style="rounded=0;whiteSpace=wrap;html=1;strokeColor=none;fillColor=none;fontSize=13;" vertex="1" parent="1">
          <mxGeometry x="415" y="10" width="120" height="20" as="geometry" />
        </mxCell>
      </root>
    </mxGraphModel>
  </diagram>
</mxfile>
